<mxfile host="app.diagrams.net" agent="Mozilla/5.0 (Windows NT 10.0; Win64; x64) AppleWebKit/537.36 (KHTML, like Gecko) Chrome/129.0.0.0 Safari/537.36" version="24.7.17">
  <diagram name="Page-1" id="2YBvvXClWsGukQMizWep">
    <mxGraphModel dx="880" dy="460" grid="1" gridSize="10" guides="1" tooltips="1" connect="1" arrows="1" fold="1" page="1" pageScale="1" pageWidth="850" pageHeight="1100" math="0" shadow="0">
      <root>
        <mxCell id="0" />
        <mxCell id="1" parent="0" />
        <mxCell id="CPR8kBzrSgz2_kOxYMQ9-1" value="Usuário" style="shape=umlLifeline;perimeter=lifelinePerimeter;whiteSpace=wrap;html=1;container=0;dropTarget=0;collapsible=0;recursiveResize=0;outlineConnect=0;portConstraint=eastwest;newEdgeStyle={&quot;edgeStyle&quot;:&quot;elbowEdgeStyle&quot;,&quot;elbow&quot;:&quot;vertical&quot;,&quot;curved&quot;:0,&quot;rounded&quot;:0};" vertex="1" parent="1">
          <mxGeometry x="40" y="40" width="100" height="280" as="geometry" />
        </mxCell>
        <mxCell id="CPR8kBzrSgz2_kOxYMQ9-2" value="" style="html=1;points=[];perimeter=orthogonalPerimeter;outlineConnect=0;targetShapes=umlLifeline;portConstraint=eastwest;newEdgeStyle={&quot;edgeStyle&quot;:&quot;elbowEdgeStyle&quot;,&quot;elbow&quot;:&quot;vertical&quot;,&quot;curved&quot;:0,&quot;rounded&quot;:0};" vertex="1" parent="CPR8kBzrSgz2_kOxYMQ9-1">
          <mxGeometry x="45" y="70" width="10" height="190" as="geometry" />
        </mxCell>
        <mxCell id="CPR8kBzrSgz2_kOxYMQ9-3" value="Sistema" style="shape=umlLifeline;perimeter=lifelinePerimeter;whiteSpace=wrap;html=1;container=0;dropTarget=0;collapsible=0;recursiveResize=0;outlineConnect=0;portConstraint=eastwest;newEdgeStyle={&quot;edgeStyle&quot;:&quot;elbowEdgeStyle&quot;,&quot;elbow&quot;:&quot;vertical&quot;,&quot;curved&quot;:0,&quot;rounded&quot;:0};" vertex="1" parent="1">
          <mxGeometry x="310" y="40" width="100" height="280" as="geometry" />
        </mxCell>
        <mxCell id="CPR8kBzrSgz2_kOxYMQ9-4" value="" style="html=1;points=[];perimeter=orthogonalPerimeter;outlineConnect=0;targetShapes=umlLifeline;portConstraint=eastwest;newEdgeStyle={&quot;edgeStyle&quot;:&quot;elbowEdgeStyle&quot;,&quot;elbow&quot;:&quot;vertical&quot;,&quot;curved&quot;:0,&quot;rounded&quot;:0};" vertex="1" parent="CPR8kBzrSgz2_kOxYMQ9-3">
          <mxGeometry x="45" y="80" width="10" height="180" as="geometry" />
        </mxCell>
        <mxCell id="CPR8kBzrSgz2_kOxYMQ9-5" value="" style="endArrow=classic;html=1;rounded=0;" edge="1" parent="1" target="CPR8kBzrSgz2_kOxYMQ9-4">
          <mxGeometry width="50" height="50" relative="1" as="geometry">
            <mxPoint x="95" y="130" as="sourcePoint" />
            <mxPoint x="325" y="130" as="targetPoint" />
          </mxGeometry>
        </mxCell>
        <mxCell id="CPR8kBzrSgz2_kOxYMQ9-6" value="solicita registrar uma doação" style="text;whiteSpace=wrap;html=1;" vertex="1" parent="1">
          <mxGeometry x="130" y="100" width="180" height="40" as="geometry" />
        </mxCell>
        <mxCell id="CPR8kBzrSgz2_kOxYMQ9-7" value="" style="endArrow=classic;html=1;rounded=0;" edge="1" parent="1" source="CPR8kBzrSgz2_kOxYMQ9-4">
          <mxGeometry width="50" height="50" relative="1" as="geometry">
            <mxPoint x="325" y="170" as="sourcePoint" />
            <mxPoint x="95" y="170" as="targetPoint" />
          </mxGeometry>
        </mxCell>
        <mxCell id="CPR8kBzrSgz2_kOxYMQ9-8" value="exibe um formulário" style="text;whiteSpace=wrap;html=1;" vertex="1" parent="1">
          <mxGeometry x="130" y="140" width="160" height="40" as="geometry" />
        </mxCell>
        <mxCell id="CPR8kBzrSgz2_kOxYMQ9-9" value="" style="endArrow=classic;html=1;rounded=0;" edge="1" parent="1" source="CPR8kBzrSgz2_kOxYMQ9-2" target="CPR8kBzrSgz2_kOxYMQ9-4">
          <mxGeometry width="50" height="50" relative="1" as="geometry">
            <mxPoint x="400" y="270" as="sourcePoint" />
            <mxPoint x="450" y="220" as="targetPoint" />
          </mxGeometry>
        </mxCell>
        <mxCell id="CPR8kBzrSgz2_kOxYMQ9-10" value=" preenche e envia formulário" style="text;whiteSpace=wrap;html=1;" vertex="1" parent="1">
          <mxGeometry x="110" y="180" width="240" height="40" as="geometry" />
        </mxCell>
        <mxCell id="CPR8kBzrSgz2_kOxYMQ9-11" value="" style="endArrow=classic;html=1;rounded=0;" edge="1" parent="1" source="CPR8kBzrSgz2_kOxYMQ9-4">
          <mxGeometry width="50" height="50" relative="1" as="geometry">
            <mxPoint x="325" y="250" as="sourcePoint" />
            <mxPoint x="95" y="250" as="targetPoint" />
          </mxGeometry>
        </mxCell>
        <mxCell id="CPR8kBzrSgz2_kOxYMQ9-12" value="valida e registra a doação no banco de dados" style="text;whiteSpace=wrap;html=1;" vertex="1" parent="1">
          <mxGeometry x="100" y="220" width="260" height="40" as="geometry" />
        </mxCell>
      </root>
    </mxGraphModel>
  </diagram>
</mxfile>
